# xmcd CD database file
#
# Track frame offsets:
#	150
#	19165
#	41825
#	55374
#	68862
#	85046
#	101553
#	117686
#	132798
#	149434
#	161935
#
# Disc length: 2417 seconds
#
# Revision: 1
# Processed by: cddbd v1.5.2PL0 Copyright (c) Steve Scherf et al.
# Submitted via: CDex 1.83
#
DISCID=a2096f0b
DTITLE=Katie Melua - Ketevan
DYEAR=2013
DGENRE=Pop
TTITLE0=Never Felt Less Like Dancing
TTITLE1=Sailing Ships from Heaven
TTITLE2=Love Is a Silent Thief
TTITLE3=Shiver and Shake
TTITLE4=The Love I'm Frightened Of
TTITLE5=Where Does the Ocean Go?
TTITLE6=Idiot School
TTITLE7=Mad, Mad Men
TTITLE8=Chase Me
TTITLE9=I Never Fall
TTITLE10=I Will Be There
EXTD=YEAR: 2013
EXTT0=
EXTT1=
EXTT2=
EXTT3=
EXTT4=
EXTT5=
EXTT6=
EXTT7=
EXTT8=
EXTT9=
EXTT10=
PLAYORDER=
